<svg xmlns="http://www.w3.org/2000/svg" xmlns:xlink="http://www.w3.org/1999/xlink" preserveAspectRatio="xMidYMid" width="20" height="20" viewBox="0 0 20 20">
  <defs>
    <style>
      .cls-1 {
        fill: #adffb1;
      }

      .cls-1, .cls-2 {
        fill-rule: evenodd;
      }

      .cls-2 {
        fill: #00c800;
      }
    </style>
  </defs>
  <path d="M6.000,1.000 L18.000,1.000 L14.156,19.000 L2.156,19.000 L6.000,1.000 Z" class="cls-1"/>
  <path d="M16.000,1.000 L19.000,1.000 L15.156,19.000 L12.156,19.000 L16.000,1.000 Z" class="cls-2"/>
  <path d="M6.000,1.000 L17.000,1.000 L16.786,2.000 L5.786,2.000 L6.000,1.000 Z" class="cls-2"/>
  <path d="M2.370,18.000 L12.370,18.000 L12.156,19.000 L2.156,19.000 L2.370,18.000 Z" class="cls-2"/>
  <path d="M5.000,1.000 L7.000,1.000 L3.156,19.000 L1.156,19.000 L5.000,1.000 Z" class="cls-2"/>
  <path d="M5.437,13.000 L6.438,13.000 L6.010,15.000 L5.010,15.000 L5.437,13.000 Z" class="cls-2"/>
  <path d="M6.651,12.000 L7.651,12.000 L7.438,13.000 L6.437,13.000 L6.651,12.000 Z" class="cls-2"/>
  <path d="M7.437,13.000 L8.438,13.000 L8.010,15.000 L7.010,15.000 L7.437,13.000 Z" class="cls-2"/>
  <path d="M8.651,12.000 L9.651,12.000 L9.224,14.000 L8.224,14.000 L8.651,12.000 Z" class="cls-2"/>
  <path d="M9.651,12.000 L10.651,12.000 L10.438,13.000 L9.437,13.000 L9.651,12.000 Z" class="cls-2"/>
  <path d="M11.651,12.000 L12.651,12.000 L12.010,15.000 L11.010,15.000 L11.651,12.000 Z" class="cls-2"/>
  <path d="M10.224,14.000 L11.224,14.000 L11.010,15.000 L10.010,15.000 L10.224,14.000 Z" class="cls-2"/>
  <path d="M4.797,16.000 L11.797,16.000 L11.583,17.000 L4.583,17.000 L4.797,16.000 Z" class="cls-2"/>
</svg>
