<svg xmlns="http://www.w3.org/2000/svg" xmlns:xlink="http://www.w3.org/1999/xlink" preserveAspectRatio="xMidYMid" width="20" height="20" viewBox="0 0 20 20">
  <defs>
    <style>
      .cls-1 {
        fill: #ffadad;
      }

      .cls-1, .cls-2 {
        fill-rule: evenodd;
      }

      .cls-2 {
        fill: #c80000;
      }
    </style>
  </defs>
  <path d="M6.000,1.000 L18.000,1.000 L14.219,19.000 L2.219,19.000 L6.000,1.000 Z" class="cls-1"/>
  <path d="M16.000,1.000 L19.000,1.000 L15.219,19.000 L12.219,19.000 L16.000,1.000 Z" class="cls-2"/>
  <path d="M6.000,1.000 L17.000,1.000 L16.790,2.000 L5.790,2.000 L6.000,1.000 Z" class="cls-2"/>
  <path d="M2.429,18.000 L12.429,18.000 L12.219,19.000 L2.219,19.000 L2.429,18.000 Z" class="cls-2"/>
  <path d="M5.000,1.000 L7.000,1.000 L3.219,19.000 L1.219,19.000 L5.000,1.000 Z" class="cls-2"/>
  <path d="M5.479,13.000 L6.479,13.000 L6.059,15.000 L5.059,15.000 L5.479,13.000 Z" class="cls-2"/>
  <path d="M6.689,12.000 L7.689,12.000 L7.479,13.000 L6.479,13.000 L6.689,12.000 Z" class="cls-2"/>
  <path d="M7.479,13.000 L8.479,13.000 L8.059,15.000 L7.059,15.000 L7.479,13.000 Z" class="cls-2"/>
  <path d="M8.689,12.000 L9.689,12.000 L9.269,14.000 L8.269,14.000 L8.689,12.000 Z" class="cls-2"/>
  <path d="M9.689,12.000 L10.689,12.000 L10.479,13.000 L9.479,13.000 L9.689,12.000 Z" class="cls-2"/>
  <path d="M11.689,12.000 L12.689,12.000 L12.059,15.000 L11.059,15.000 L11.689,12.000 Z" class="cls-2"/>
  <path d="M10.269,14.000 L11.269,14.000 L11.059,15.000 L10.059,15.000 L10.269,14.000 Z" class="cls-2"/>
  <path d="M4.849,16.000 L11.849,16.000 L11.639,17.000 L4.639,17.000 L4.849,16.000 Z" class="cls-2"/>
</svg>
